PathFileType	4	(X/Y/Z)	c:/Users/goper/Files/vsCode/490R/osim_files/A03/A03_Static02.trc
DataRate	CameraRate	NumFrames	NumMarkers	Units                	OrigDataRate	OrigDataStartFrame	OrigNumFrames
250.00	250.00	4	36	mm	250.0	1114	2227
                Frame#	Time	LPSIS			LASIS			LTH1			LTH2			LTH3			LTH4			LLFE			LMFE			LSH1			LSH2			LSH3			LSH4			LLMAL			LMMAL			LCAL			LMTP5			LTOE			LMTP1			RPSIS			RASIS			RTH1			RTH2			RTH3			RTH4			RLFE			RMFE			RSH1			RSH2			RSH3			RSH4			RLMAL			RMMAL			RCAL			RMTP1			RTOE			RMTP5		
		X1	Y1	Z1	X2	Y2	Z2	X3	Y3	Z3	X4	Y4	Z4	X5	Y5	Z5	X6	Y6	Z6	X7	Y7	Z7	X8	Y8	Z8	X9	Y9	Z9	X10	Y10	Z10	X11	Y11	Z11	X12	Y12	Z12	X13	Y13	Z13	X14	Y14	Z14	X15	Y15	Z15	X16	Y16	Z16	X17	Y17	Z17	X18	Y18	Z18	X19	Y19	Z19	X20	Y20	Z20	X21	Y21	Z21	X22	Y22	Z22	X23	Y23	Z23	X24	Y24	Z24	X25	Y25	Z25	X26	Y26	Z26	X27	Y27	Z27	X28	Y28	Z28	X29	Y29	Z29	X30	Y30	Z30	X31	Y31	Z31	X32	Y32	Z32	X33	Y33	Z33	X34	Y34	Z34	X35	Y35	Z35	X36	Y36	Z36

1114	4.45200	-361.95963	1056.82056	413.34183	-115.04126	987.85413	306.72665	-184.64861	646.98224	234.04176	-174.02280	604.83191	230.72922	-122.47981	653.24731	244.58119	-122.68616	609.40338	241.64937	-180.84753	559.11200	236.95760	-135.12933	529.45276	384.44775	-237.05780	478.61224	237.98247	-242.26411	430.47623	234.43834	-176.52600	464.84000	229.76166	-190.85629	419.52463	231.25307	-287.46851	104.01020	232.13052	-257.17529	104.38064	321.39352	-347.16226	85.80239	297.89203	-148.31409	41.94749	182.82513	-102.92700	68.43293	244.10701	-122.64828	47.84916	294.30377	-368.32910	1062.09009	494.12906	-128.09442	987.75775	609.09363	-220.50481	632.46832	676.66882	-213.46368	588.30243	672.81940	-158.88464	636.07031	680.59613	-159.28259	591.42865	675.99207	-192.90466	545.10199	665.17609	-134.71091	540.11469	552.23126	-250.61813	484.05240	660.99573	-260.16278	445.28781	675.70862	-192.28818	469.66730	676.98755	-211.03069	428.09354	688.91742	-287.44153	128.65170	662.03821	-244.24374	128.58728	587.14185	0.00000	0.00000	0.00000	-122.20061	47.97854	595.81598	-100.23120	70.92439	648.41394	-142.56487	42.51505	713.03558
1115	4.45600	-361.99323	1056.85413	413.41098	-115.10912	987.83722	306.76550	-184.69016	646.99072	234.04564	-174.05403	604.82782	230.73157	-122.52319	653.25952	244.59105	-122.72955	609.40039	241.65366	-180.88510	559.11487	236.95712	-135.18536	529.49469	384.45816	-237.09995	478.63492	237.98477	-242.28694	430.45047	234.43451	-176.55571	464.85474	229.76825	-190.89754	419.53058	231.26576	-287.47894	104.00156	232.12462	-257.20102	104.38536	321.40640	-347.18408	85.78630	297.90353	-148.31882	41.94585	182.82851	-102.94180	68.44918	244.11072	-122.65326	47.87014	294.30353	-368.32941	1062.08850	494.18381	-129.42606	987.07135	608.64948	-220.52412	632.49084	676.69061	-213.51884	588.31836	672.82764	-158.89198	636.09253	680.60333	-159.31630	591.43530	676.00256	-192.93741	545.10974	665.17621	-134.72997	540.11200	552.23706	-250.65530	484.05560	661.00372	-260.18164	445.32346	675.71191	-192.33086	469.68109	676.99292	-211.05527	428.09708	688.92291	-287.46313	128.66803	662.00830	-244.28180	128.57814	587.14642	0.00000	0.00000	0.00000	-122.23582	47.96873	595.78503	-100.23699	70.92963	648.42975	-142.59663	42.51029	713.03094
1116	4.46000	-362.04013	1056.84985	413.45874	-115.18571	987.85095	306.79330	-185.46138	646.55005	234.53040	-174.12173	604.83728	230.73759	-122.55727	653.27307	244.60153	-122.77568	609.41138	241.66248	-180.94370	559.11633	236.98615	-135.22644	529.51208	384.45074	-237.12503	478.63254	237.98897	-242.30644	430.45724	234.44986	-176.58733	464.85718	229.77528	-190.92595	419.52979	231.27197	-287.69141	104.10315	232.00214	-257.25607	104.40479	321.40005	-347.17603	85.79876	297.89304	-148.34268	41.95355	182.83806	-102.93302	68.48880	244.10095	-122.64908	47.89885	294.29733	-368.38327	1062.09033	494.25424	-129.40312	987.12744	608.68616	-220.53506	632.50665	676.69586	-213.55559	588.33502	672.82208	-158.91118	636.12958	680.62183	-159.30753	591.48181	675.99298	-192.96365	545.13568	665.16437	-134.75835	540.12640	552.25708	-250.68602	484.09445	660.99738	-260.21323	445.34589	675.70007	-192.35527	469.71075	676.98883	-211.06206	428.14294	688.92755	-287.49164	128.67786	661.99939	-244.26859	128.57925	587.15979	0.00000	0.00000	0.00000	-122.24043	47.99834	595.78107	-100.22933	70.93974	648.40936	-142.59538	42.52440	713.03564
1117	4.46400	-362.06198	1056.88013	413.52429	-115.20970	987.86310	306.79559	-184.81282	647.00293	234.09511	-174.15485	604.83765	230.75424	-122.61404	653.29163	244.59964	-122.83405	609.42712	241.65804	-180.97426	559.10986	236.99075	-135.25192	529.53711	384.44962	-237.14798	478.63052	237.99861	-242.36230	430.46198	234.45944	-176.62419	464.87131	229.77208	-190.96465	419.53821	231.26744	-287.68765	104.09650	231.98961	-257.25601	104.43304	321.39761	-347.20154	85.78735	297.89035	-148.36519	41.95041	182.84668	-102.93528	68.52835	244.07750	-122.63538	47.95358	294.25620	-368.36426	1062.10339	494.30106	-129.34894	987.18195	608.68292	-220.57787	632.53229	676.71130	-213.56293	588.36737	672.83423	-158.87737	636.13300	680.58807	-159.30171	591.51294	675.99115	-192.99663	545.16797	665.17804	-134.78221	540.13391	552.25049	-250.71790	484.10245	661.00092	-260.24466	445.35962	675.70526	-192.33839	469.73492	676.99298	-211.08290	428.17859	688.89313	-287.50281	128.69513	662.01331	-244.28062	128.59019	587.19885	0.00000	0.00000	0.00000	-122.22810	48.04070	595.76843	-100.22213	70.96825	648.41455	-142.59712	42.57509	713.03839
